<?xml version="1.0" encoding="UTF-8"?>
<svg id="Laag_2" data-name="Laag 2" xmlns="http://www.w3.org/2000/svg" viewBox="0 0 95.59 55.52">
  <defs>
    <style>
      .cls-1 {
        fill: #020202;
      }

      .cls-1, .cls-2 {
        stroke-width: 0px;
      }
    </style>
  </defs>
  <g id="Laag_1-2" data-name="Laag 1">
    <g>
      <path class="cls-1" d="m42.32,55.51c-11.16,0-22.32.05-33.48-.03-6.32-.05-8.75-2.47-8.78-8.77-.07-12.64-.07-25.29,0-37.93C.09,2.54,2.54.07,8.9.05,31.22-.01,53.55-.02,75.87.05c6.94.02,9.51,2.7,9.44,9.85-.03,3.4.31,5.79,4.12,7.39,4.46,1.88,6.31,5.97,6.15,11.02-.16,4.95-1.9,8.84-6.52,10.83-2.89,1.25-3.8,2.99-3.78,6.08.06,8.02-2.35,10.26-10.48,10.28-10.83.04-21.66,0-32.49,0Zm.22-3.28c10.84,0,21.68-.13,32.51.06,4.66.08,6.92-1.9,6.94-6.41.06-11.99.07-23.98.02-35.97-.02-4.34-1.92-6.67-6.73-6.65-21.84.13-43.69.11-65.53.01-4.72-.02-6.58,2.03-6.53,6.64.12,11.82,0,23.65.05,35.47.02,5.57,1.23,6.8,6.74,6.82,10.84.05,21.68.01,32.52.02Z"/>
      <path class="cls-2" d="m12.8,42.96c0-9.06-.17-17.71.18-26.33.06-1.34,2.48-3.64,3.88-3.69,8.48-.35,16.99-.29,25.47-.05,1.54.04,3.68,1.16,4.47,2.45,5.45,8.9,10.62,17.97,16.25,27.63H12.8Z"/>
    </g>
  </g>
</svg>