<svg width="25" height="25" viewBox="0 0 25 25" fill="none" xmlns="http://www.w3.org/2000/svg">
<g clip-path="url(#clip0_7_2)">
<path d="M21.5067 5.27667C20.996 4.76567 20.3896 4.36031 19.7221 4.08375C19.0546 3.80719 18.3392 3.66484 17.6167 3.66484C16.8943 3.66484 16.1788 3.80719 15.5114 4.08375C14.8439 4.36031 14.2375 4.76567 13.7267 5.27667L12.6667 6.33667L11.6067 5.27667C10.5751 4.24497 9.17578 3.66538 7.71674 3.66538C6.25771 3.66538 4.85844 4.24497 3.82674 5.27667C2.79505 6.30836 2.21545 7.70763 2.21545 9.16667C2.21545 10.6257 2.79505 12.025 3.82674 13.0567L4.88674 14.1167L12.6667 21.8967L20.4467 14.1167L21.5067 13.0567C22.0177 12.5459 22.4231 11.9395 22.6997 11.272C22.9762 10.6046 23.1186 9.88915 23.1186 9.16667C23.1186 8.44418 22.9762 7.72877 22.6997 7.06131C22.4231 6.39385 22.0177 5.78742 21.5067 5.27667Z" stroke="black" stroke-width="2" stroke-linecap="round" stroke-linejoin="round"/>
</g>
<defs>
<clipPath id="clip0_7_2">
<rect width="24" height="24" fill="white" transform="translate(0.666748 0.666664)"/>
</clipPath>
</defs>
</svg>
