<?xml version="1.0" encoding="UTF-8"?>
<svg id="Laag_2" data-name="Laag 2" xmlns="http://www.w3.org/2000/svg" viewBox="0 0 47.16 64.36">
  <defs>
    <style>
      .cls-1 {
        stroke-width: 0px;
      }
    </style>
  </defs>
  <g id="Laag_1-2" data-name="Laag 1">
    <path class="cls-1" d="m8.02,63.48c2.09-7.63,4.21-15.25,6.26-22.89,1.56-5.81.81-6.76-5.21-6.83-2.78-.03-5.56,0-9.07,0,.58-2.17.8-3.6,1.34-4.89,3.47-8.29,7.13-16.5,10.47-24.84C13,1.08,14.75-.06,17.83,0c6.23.13,12.47.04,19.74.04-1.53,3.45-2.44,5.71-3.51,7.88-4.98,10.12-4.77,10.46,6.73,10.48,1.91,0,3.81,0,5.72,0,.22.47.43.94.65,1.41-12.55,14.85-25.1,29.69-37.66,44.54-.49-.29-.99-.58-1.48-.88Z"/>
  </g>
</svg>