<?xml version="1.0" encoding="UTF-8"?>
<svg id="Laag_2" data-name="Laag 2" xmlns="http://www.w3.org/2000/svg" viewBox="0 0 93.72 77.35">
  <defs>
    <style>
      .cls-1 {
        stroke-width: 0px;
      }
    </style>
  </defs>
  <g id="Laag_1-2" data-name="Laag 1">
    <g>
      <path class="cls-1" d="m81.04,42.08c9.03-.03,15.04,7.78,11.78,16.27-2.3,5.98-5.9,11.47-9.11,17.07-1.42,2.47-3.49,2.67-4.97.04-3.25-5.76-6.87-11.4-9.3-17.51-3.16-7.96,2.97-15.85,11.6-15.88Zm.09,19.12c3.79.05,7.17-3.47,7.14-7.43-.03-3.63-3.3-7.11-6.83-7.28-3.82-.18-7.34,3.24-7.42,7.2-.08,4,3.18,7.45,7.11,7.5Z"/>
      <path class="cls-1" d="m12.88,0c8.59.21,14.45,8.19,11.23,16.21-2.39,5.95-5.91,11.45-9.09,17.06-1.64,2.9-3.71,2.58-5.25-.12-3.03-5.32-6.38-10.54-8.69-16.17C-2.57,8.1,3.47-.22,12.88,0Zm6.65,11.67c-.07-4.06-3.43-7.35-7.35-7.19-3.57.14-6.78,3.55-6.82,7.26-.04,3.9,3.39,7.49,7.13,7.45,3.93-.04,7.11-3.44,7.04-7.51Z"/>
      <path class="cls-1" d="m43.76,42.62c2.47,1.62,3.35,3.94,2.62,6.84-.26,1.03-1.71,1.1-2.09.11l-2.14-5.62c-.38-.99.74-1.9,1.62-1.32Z"/>
      <path class="cls-1" d="m45.51,59.7c-.07-.31.65-1.15.98-1.14.59.02,1.36.5,1.7.81,1.78,1.65,5.08,8.15,2.62,8.94-3.83.43-4.52-5.25-5.29-8.61Z"/>
      <path class="cls-1" d="m26.53,35.67c3.29-.71,6.54-1.11,9.52.98,1.09.76.49,2.47-.84,2.35l-8.54-.79c-.7-.06-1.21-.67-1.16-1.37h0c.04-.57.46-1.04,1.02-1.16Z"/>
      <path class="cls-1" d="m58.9,73.01l4.86,1.33c1.2.33,1.22,2.26-.12,2.56-2.44.56-4.58-.02-6.11-1.71-.89-.98.09-2.53,1.37-2.18Z"/>
    </g>
  </g>
</svg>