<?xml version="1.0" encoding="UTF-8"?>
<svg id="Laag_2" data-name="Laag 2" xmlns="http://www.w3.org/2000/svg" viewBox="0 0 72.94 57.65">
  <defs>
    <style>
      .cls-1 {
        stroke-width: 0px;
      }
    </style>
  </defs>
  <g id="Laag_1-2" data-name="Laag 1">
    <g>
      <path class="cls-1" d="m54.37,5.04c-2.73,3.3-5.39,3.29-8.81,2.18-11.92-3.88-22.5-.84-31.1,7.88-8.55,8.67-10.4,19.33-7.12,30.96,1.23,4.38,3.63,6.44,8.61,6.32,13.81-.33,27.64-.23,41.45-.05,4.18.05,6.36-1.55,7.71-5.44,2.26-6.54,2.73-13.1.41-19.54-1.3-3.61-1.15-6.37,2.26-9.32,3.94,6.69,5.65,13.69,5.04,21.26-.17,2.14-.66,4.28-1.2,6.36-2.73,10.63-4.47,11.96-15.41,11.96-14.65,0-29.3-.08-43.95.04-3.93.03-6.57-1.3-8.4-4.89C-3.15,39.04-.46,22.06,10.67,10.86,21.76-.29,38.96-3.21,52.58,3.76c.56.29,1.04.74,1.79,1.29Z"/>
      <path class="cls-1" d="m60.02,12.74c-6.38,9.53-12.12,17.87-17.59,26.39-1.93,3-4.52,4.27-7.54,3.22-1.89-.65-4.58-2.93-4.52-4.38.1-2.58,1.33-6.02,3.29-7.47,8.15-6,16.76-11.38,26.35-17.76Z"/>
    </g>
  </g>
</svg>