<?xml version="1.0" encoding="UTF-8"?>
<svg id="Laag_2" data-name="Laag 2" xmlns="http://www.w3.org/2000/svg" viewBox="0 0 83.15 67.23">
  <defs>
    <style>
      .cls-1 {
        fill: #020202;
        stroke-width: 0px;
      }
    </style>
  </defs>
  <g id="Laag_1-2" data-name="Laag 1">
    <g>
      <path class="cls-1" d="m36.5,43.68c-1.33.51-2.18,1.83-2.19,3.26-.01,1.59.08,3.18-.47,4.67-.45,1.23-1.85,2.16-2.91,3.13-3.13,2.85-6.49,5.46-9.41,8.51-3.16,3.29-8.65,4.94-13.28,3.42C3.42,65.07.13,60.56,0,55.33c-.14-5.58,2.6-9.64,7.49-11.77,4.2-1.83,8.18-4.17,12.41-5.91,1.45-.59,3.82-.57,5.27.03,3.89,1.62,7.59,3.67,11.36,5.58.17.09.17.34-.01.41,0,0-.02,0-.02,0Zm-17.01,11.07c-.12-3.84-3.78-7.23-7.6-7.04-4.04.2-6.98,3.55-6.75,7.69.22,4.01,3.09,6.67,7.17,6.64,4.07-.03,7.31-3.32,7.18-7.29Z"/>
      <path class="cls-1" d="m65.73,24.6c-4.23-2.36-8.1-4.51-11.87-6.61-1.1-.61-.8-2.3.45-2.46,4.03-.52,6.05-2.81,8.06-8.28,1.93-5.27,7.35-8.2,12.83-6.96,4.97,1.13,8.41,6.26,7.89,11.74-.5,5.2-4.97,9.12-10.56,9.23-1.15.02-2.31.02-3.64.01-.9,0-1.54.87-1.27,1.72l.02.05c.36,1.14-.86,2.14-1.91,1.55Zm11.54-10.74c1.53-1.83,1.43-3.63,1.28-4.17-1.09-3.99-2.64-4.46-6.1-4.4-3.39.06-5.22,1.94-5.3,5.24-.09,3.61,2.04,5.94,5.46,5.41,1.94-.3,3.22-.37,4.65-2.08Z"/>
      <path class="cls-1" d="m55.47,28.42l-7.62-4.23c-1.37-.76-.54-2.85.98-2.47,3.15.79,5.99,2.17,8.27,4.61,1.04,1.11-.3,2.82-1.63,2.09Z"/>
      <path class="cls-1" d="m40.64,39.27l-9.14-5.03c-1.21-.67-.53-2.51.83-2.24,3.87.76,7.26,2.38,9.83,5.45.85,1.01-.36,2.45-1.52,1.82Z"/>
      <path class="cls-1" d="m40.55,26.85c3.54.7,6.63,2.22,9.04,4.98.93,1.06-.3,2.61-1.53,1.94l-8.36-4.59c-1.26-.69-.55-2.6.85-2.33Z"/>
    </g>
  </g>
</svg>